<?xml version="1.0" encoding="utf-8"?>
<!-- Generator: Adobe Illustrator 27.3.1, SVG Export Plug-In . SVG Version: 6.00 Build 0)  -->
<svg version="1.1" id="PLANETS" xmlns="http://www.w3.org/2000/svg" xmlns:xlink="http://www.w3.org/1999/xlink" x="0px" y="0px"
	 viewBox="0 0 14 14" style="enable-background:new 0 0 14 14;" xml:space="preserve">
<style type="text/css">
	.st0{fill:none;}
	.st1{fill:#60310B;stroke:#000000;stroke-width:0.25;stroke-linecap:round;}
</style>
<rect id="Rectangle_16808" class="st0" width="14" height="14"/>
<path id="Union_397" class="st1" d="M5.3,13.2c-0.5-0.2-1-0.5-1.4-0.9c-0.4-0.4-0.7-0.9-0.9-1.4c-0.2-0.5-0.3-1.1-0.3-1.7
	c0-0.7,0.2-1.5,0.5-2.2C3.4,6.4,3.7,5.9,4,5.3l0,0C3.8,5.4,3.5,5.4,3.2,5.4c-0.7,0-1.3-0.3-1.7-0.7C1,4.2,0.7,3.6,0.8,3
	c0-0.7,0.3-1.3,0.7-1.7c0.5-0.5,1.1-0.7,1.7-0.7c0.7,0,1.3,0.3,1.7,0.7c0.5,0.5,0.7,1.1,0.7,1.7c0,1-0.4,2-1,2.8
	C4.4,6.2,4.1,6.8,3.8,7.3C3.6,7.9,3.4,8.6,3.4,9.2c0,0.9,0.4,1.8,1,2.5c0.3,0.3,0.7,0.6,1.1,0.8C6,12.6,6.5,12.7,7,12.7
	c0.5,0,1-0.1,1.4-0.3c0.4-0.2,0.8-0.4,1.1-0.8c0.7-0.7,1-1.6,1-2.5c0-0.6-0.2-1.3-0.4-1.9C9.8,6.8,9.5,6.2,9.2,5.7
	c-0.6-0.8-1-1.8-1-2.8c0-0.6,0.3-1.3,0.7-1.7c0.5-0.5,1.1-0.7,1.7-0.7c0.7,0,1.3,0.3,1.7,0.7c0.5,0.5,0.7,1.1,0.7,1.7
	c0,0.7-0.3,1.3-0.7,1.7c-0.5,0.5-1.1,0.7-1.7,0.7c-0.3,0-0.6-0.1-0.9-0.2l0,0c0.3,0.6,0.7,1.1,0.9,1.7c0.3,0.7,0.5,1.4,0.5,2.2
	c0,0.6-0.1,1.1-0.3,1.7c-0.2,0.5-0.5,1-0.9,1.4c-0.4,0.4-0.9,0.7-1.4,0.9c-0.5,0.2-1.1,0.3-1.7,0.3C6.4,13.5,5.8,13.4,5.3,13.2z
	 M9.5,1.8c-0.7,0.7-0.7,1.7,0,2.4c0.7,0.7,1.7,0.7,2.4,0c0.7-0.7,0.7-1.7,0-2.4c-0.3-0.3-0.8-0.5-1.2-0.5C10.2,1.3,9.8,1.4,9.5,1.8
	L9.5,1.8z M2,1.8C1.3,2.4,1.3,3.5,2,4.2c0.7,0.7,1.7,0.7,2.4,0c0.7-0.7,0.7-1.7,0-2.4C4.1,1.4,3.7,1.3,3.2,1.3
	C2.8,1.3,2.3,1.4,2,1.8L2,1.8z"/>
</svg>
